# xmcd
#
# Track frame offsets:
#	150
#	13750
#	26315
#	39222
#	52722
#	64157
#	75737
#	86742
#	102480
#	112860
#	127135
#	142772
#	156460
#	168932
#	182150
#	192855
#	205535
#	219710
#
# Disc length: 3062 seconds
#
# Revision: 1
# Processed by: cddbd v1.5.1PL2 Copyright (c) Steve Scherf et al.
# Submitted via: EasyCDDAExtractor 6.0.0.1
#
DISCID=ea0bf412
DTITLE=Woody Guthrie - Country Music CM011
DYEAR=1999
DGENRE=Country
TTITLE0=House Of The Rising Sun
TTITLE1=John Henry
TTITLE2=Oregon Trail
TTITLE3=Baltimore To Washington
TTITLE4=Little Black Train
TTITLE5=Slip Knot
TTITLE6=Poor Boy
TTITLE7=Mean Talking Blues
TTITLE8=Dig My Life Away
TTITLE9=Pretty Boy Floyd
TTITLE10=Buffalo Skinners
TTITLE11=I Ride An Old Paint
TTITLE12=Stackolee
TTITLE13=Chain Gang Special
TTITLE14=Cumberland Gap
TTITLE15=Bury Me Beneath The Willow
TTITLE16=You Shall Be Free
TTITLE17=Hard Travellin'
EXTD=
EXTT0=
EXTT1=
EXTT2=
EXTT3=
EXTT4=
EXTT5=
EXTT6=
EXTT7=
EXTT8=
EXTT9=
EXTT10=
EXTT11=
EXTT12=
EXTT13=
EXTT14=
EXTT15=
EXTT16=
EXTT17=
PLAYORDER=
